<svg width="100" height="100" viewBox="0 0 100 100" fill="none" xmlns="http://www.w3.org/2000/svg">
<path fill-rule="evenodd" clip-rule="evenodd" d="M66 95.2687C84.6431 88.6793 98 70.8995 98 50C98 23.4903 76.5097 2 50 2C23.4903 2 2 23.4903 2 50C2 70.8995 15.3569 88.6793 34 95.2687V95.5C34 96.1573 33.6829 96.7406 33.1933 97.1052C13.8466 90.2018 0 71.7179 0 50C0 22.3858 22.3858 0 50 0C77.6142 0 100 22.3858 100 50C100 71.7179 86.1534 90.2018 66.8067 97.1052C66.3171 96.7406 66 96.1573 66 95.5V95.2687Z" fill="white"/>
<path fill-rule="evenodd" clip-rule="evenodd" d="M38.563 45.1622C41.5589 47.5636 45.3617 49 49.5 49C53.8386 49 57.8085 47.4211 60.8665 44.8065L59.1669 43.6169C57.9301 44.6049 56.5387 45.4075 55.0348 45.9826L54 46.5L52.9325 46.6186C51.8284 46.8682 50.6796 47 49.5 47H46.5L42.5 45.5L41.6838 44.8879C41.2444 44.6308 40.8188 44.3527 40.4083 44.055L38.563 45.1622Z" fill="white"/>
<path fill-rule="evenodd" clip-rule="evenodd" d="M38.0466 45.472C34.3621 48.4033 32 52.9258 32 58V94C32 95.1897 32.1298 96.349 32.3761 97.4647C33.3009 97.2887 34 96.476 34 95.5V94V58C34 52.3435 37.3545 47.4706 42.1827 45.262L40.5 44L38.0466 45.472ZM57.0711 44.9467C62.2964 46.9781 66 52.0565 66 58V94V95.5C66 96.476 66.6991 97.2887 67.6239 97.4647C67.8702 96.349 68 95.1897 68 94V58C68 53.2427 65.9238 48.9703 62.628 46.0396L59.5795 43.9057C59.3601 43.7874 59.1375 43.6741 58.9121 43.5659L57.0711 44.9467Z" fill="white"/>
<circle cx="49.5" cy="31.5" r="11.5" stroke="#00BFA5" stroke-width="2"/>
<circle cx="38" cy="21" r="5" fill="white"/>
<path d="M33.8284 23.337C31.8049 19.6014 35.2143 15.2515 39.3251 16.324V16.324C39.7728 16.4407 40.2014 16.6208 40.598 16.8588L42.6404 18.0842C44.1457 18.9874 45.958 19.2263 47.6459 18.744V18.744C48.2125 18.5821 48.799 18.5 49.3883 18.5H51.5214C52.497 18.5 53.4624 18.6982 54.359 19.0824L54.9629 19.3412C55.9622 19.7695 56.8011 20.5018 57.3604 21.434V21.434C57.7808 22.1347 58.3613 22.7258 59.0542 23.1589L59.409 23.3806C61.0593 24.4121 62.1984 26.0914 62.5466 28.0061L62.6721 28.6964C62.8882 29.8851 62.8484 31.1063 62.5554 32.2785L62.3793 32.9826C62.1275 33.9899 61.7446 34.9597 61.2404 35.8672L59.5 39V39C60.2493 37.6513 60.0678 35.9769 59.047 34.82L58.2133 33.875C57.4263 32.9831 56.9541 31.8573 56.8693 30.6709L56.6705 27.8872C56.5744 26.5421 55.4552 25.5 54.1068 25.5V25.5C53.7077 25.5 53.3142 25.4071 52.9573 25.2286L51.8416 24.6708C49.1808 23.3404 45.9966 23.6275 43.6167 25.4125L43.1391 25.7706C42.0752 26.5686 40.7723 27 39.4424 27V27C38.4978 27 37.5602 26.7801 36.7154 26.3577L36.4694 26.2347C35.513 25.7565 34.7268 24.9957 34.2175 24.0554L33.8284 23.337Z" fill="white"/>
<path fill-rule="evenodd" clip-rule="evenodd" d="M47.0288 51.1447C47.9747 51.3096 48.9462 51.3955 49.937 51.3955C50.9633 51.3955 51.9689 51.3034 52.9467 51.1267C54.1914 52.0361 55 53.5069 55 55.1665V94.7868V99.7868H45V94.7868V55.1665C45 53.5178 45.798 52.0555 47.0288 51.1447Z" fill="#00BFA5"/>
</svg>
