<svg width="91" height="19" viewBox="0 0 91 19" fill="none" xmlns="http://www.w3.org/2000/svg">
<path d="M6.774 18.092C5.578 18.092 4.497 17.816 3.531 17.264C2.58033 16.6967 1.82133 15.93 1.254 14.964C0.702 13.998 0.426 12.9093 0.426 11.698C0.426 10.4867 0.679 9.40567 1.185 8.455C1.70633 7.489 2.41167 6.73 3.301 6.178C4.19033 5.61067 5.19467 5.327 6.314 5.327C7.21867 5.327 8.05433 5.51867 8.821 5.902C9.58767 6.27 10.2317 6.776 10.753 7.42V1.21C10.753 0.857333 10.8603 0.573666 11.075 0.359C11.305 0.144333 11.5887 0.0369996 11.926 0.0369996C12.2787 0.0369996 12.5623 0.144333 12.777 0.359C12.9917 0.573666 13.099 0.857333 13.099 1.21V11.698C13.099 12.9093 12.8153 13.998 12.248 14.964C11.696 15.93 10.9447 16.6967 9.994 17.264C9.04333 17.816 7.97 18.092 6.774 18.092ZM6.774 16.022C7.556 16.022 8.25367 15.838 8.867 15.47C9.48033 15.0867 9.96333 14.5653 10.316 13.906C10.6687 13.2467 10.845 12.5107 10.845 11.698C10.845 10.87 10.6687 10.134 10.316 9.49C9.96333 8.846 9.48033 8.34 8.867 7.972C8.25367 7.58867 7.556 7.397 6.774 7.397C6.00733 7.397 5.30967 7.58867 4.681 7.972C4.06767 8.34 3.577 8.846 3.209 9.49C2.85633 10.134 2.68 10.87 2.68 11.698C2.68 12.5107 2.85633 13.2467 3.209 13.906C3.577 14.5653 4.06767 15.0867 4.681 15.47C5.30967 15.838 6.00733 16.022 6.774 16.022ZM23.1529 18.092C21.8802 18.092 20.7455 17.8237 19.7489 17.287C18.7675 16.735 17.9932 15.9837 17.4259 15.033C16.8739 14.067 16.5979 12.963 16.5979 11.721C16.5979 10.4637 16.8585 9.35967 17.3799 8.409C17.9165 7.443 18.6525 6.69167 19.5879 6.155C20.5232 5.603 21.5965 5.327 22.8079 5.327C24.0039 5.327 25.0312 5.59533 25.8899 6.132C26.7485 6.65333 27.4002 7.38167 27.8449 8.317C28.3049 9.237 28.5349 10.3027 28.5349 11.514C28.5349 11.8053 28.4352 12.0507 28.2359 12.25C28.0365 12.434 27.7835 12.526 27.4769 12.526H18.2079V10.686H27.4079L26.4649 11.33C26.4495 10.5633 26.2962 9.881 26.0049 9.283C25.7135 8.66967 25.2995 8.18667 24.7629 7.834C24.2262 7.48133 23.5745 7.305 22.8079 7.305C21.9339 7.305 21.1825 7.49667 20.5539 7.88C19.9405 8.26333 19.4729 8.79233 19.1509 9.467C18.8289 10.1263 18.6679 10.8777 18.6679 11.721C18.6679 12.5643 18.8595 13.3157 19.2429 13.975C19.6262 14.6343 20.1552 15.1557 20.8299 15.539C21.5045 15.9223 22.2789 16.114 23.1529 16.114C23.6282 16.114 24.1112 16.0297 24.6019 15.861C25.1079 15.677 25.5142 15.47 25.8209 15.24C26.0509 15.0713 26.2962 14.987 26.5569 14.987C26.8329 14.9717 27.0705 15.0483 27.2699 15.217C27.5305 15.447 27.6685 15.7 27.6839 15.976C27.6992 16.252 27.5765 16.4897 27.3159 16.689C26.7945 17.103 26.1429 17.4403 25.3609 17.701C24.5942 17.9617 23.8582 18.092 23.1529 18.092ZM36.104 18C35.3374 18 34.6474 17.8083 34.034 17.425C33.4207 17.0263 32.9377 16.4897 32.585 15.815C32.2324 15.1403 32.056 14.3813 32.056 13.538V2.567C32.056 2.22967 32.1634 1.95367 32.378 1.739C32.5927 1.52433 32.8687 1.417 33.206 1.417C33.5434 1.417 33.8194 1.52433 34.034 1.739C34.2487 1.95367 34.356 2.22967 34.356 2.567V13.538C34.356 14.1513 34.5247 14.665 34.862 15.079C35.1994 15.493 35.6134 15.7 36.104 15.7H36.886C37.162 15.7 37.392 15.8073 37.576 16.022C37.7754 16.2367 37.875 16.5127 37.875 16.85C37.875 17.1873 37.7447 17.4633 37.484 17.678C37.2387 17.8927 36.9167 18 36.518 18H36.104ZM30.998 7.857C30.676 7.857 30.4154 7.765 30.216 7.581C30.0167 7.397 29.917 7.167 29.917 6.891C29.917 6.58433 30.0167 6.339 30.216 6.155C30.4154 5.971 30.676 5.879 30.998 5.879H36.311C36.633 5.879 36.8937 5.971 37.093 6.155C37.2924 6.339 37.392 6.58433 37.392 6.891C37.392 7.167 37.2924 7.397 37.093 7.581C36.8937 7.765 36.633 7.857 36.311 7.857H30.998ZM46.6695 18.092C45.3968 18.092 44.2621 17.8237 43.2655 17.287C42.2841 16.735 41.5098 15.9837 40.9425 15.033C40.3905 14.067 40.1145 12.963 40.1145 11.721C40.1145 10.4637 40.3751 9.35967 40.8965 8.409C41.4331 7.443 42.1691 6.69167 43.1045 6.155C44.0398 5.603 45.1131 5.327 46.3245 5.327C47.5205 5.327 48.5478 5.59533 49.4065 6.132C50.2651 6.65333 50.9168 7.38167 51.3615 8.317C51.8215 9.237 52.0515 10.3027 52.0515 11.514C52.0515 11.8053 51.9518 12.0507 51.7525 12.25C51.5531 12.434 51.3001 12.526 50.9935 12.526H41.7245V10.686H50.9245L49.9815 11.33C49.9661 10.5633 49.8128 9.881 49.5215 9.283C49.2301 8.66967 48.8161 8.18667 48.2795 7.834C47.7428 7.48133 47.0911 7.305 46.3245 7.305C45.4505 7.305 44.6991 7.49667 44.0705 7.88C43.4571 8.26333 42.9895 8.79233 42.6675 9.467C42.3455 10.1263 42.1845 10.8777 42.1845 11.721C42.1845 12.5643 42.3761 13.3157 42.7595 13.975C43.1428 14.6343 43.6718 15.1557 44.3465 15.539C45.0211 15.9223 45.7955 16.114 46.6695 16.114C47.1448 16.114 47.6278 16.0297 48.1185 15.861C48.6245 15.677 49.0308 15.47 49.3375 15.24C49.5675 15.0713 49.8128 14.987 50.0735 14.987C50.3495 14.9717 50.5871 15.0483 50.7865 15.217C51.0471 15.447 51.1851 15.7 51.2005 15.976C51.2158 16.252 51.0931 16.4897 50.8325 16.689C50.3111 17.103 49.6595 17.4403 48.8775 17.701C48.1108 17.9617 47.3748 18.092 46.6695 18.092ZM60.2984 18.092C59.0717 18.092 57.9754 17.816 57.0094 17.264C56.0587 16.6967 55.3074 15.9377 54.7554 14.987C54.2187 14.021 53.9504 12.9323 53.9504 11.721C53.9504 10.479 54.2187 9.375 54.7554 8.409C55.2921 7.443 56.0281 6.69167 56.9634 6.155C57.8987 5.603 58.9721 5.327 60.1834 5.327C61.0881 5.327 61.9161 5.50333 62.6674 5.856C63.4187 6.19333 64.0934 6.707 64.6914 7.397C64.9061 7.64233 64.9827 7.89533 64.9214 8.156C64.8601 8.41667 64.6914 8.64667 64.4154 8.846C64.2007 8.99933 63.9631 9.053 63.7024 9.007C63.4417 8.94567 63.2041 8.80767 62.9894 8.593C62.2381 7.79567 61.3027 7.397 60.1834 7.397C59.4014 7.397 58.7114 7.581 58.1134 7.949C57.5154 8.30167 57.0477 8.8 56.7104 9.444C56.3731 10.088 56.2044 10.847 56.2044 11.721C56.2044 12.549 56.3731 13.285 56.7104 13.929C57.0631 14.573 57.5461 15.0867 58.1594 15.47C58.7727 15.838 59.4857 16.022 60.2984 16.022C60.8351 16.022 61.3027 15.9607 61.7014 15.838C62.1154 15.7 62.4911 15.493 62.8284 15.217C63.0737 15.0177 63.3267 14.9103 63.5874 14.895C63.8481 14.8643 64.0781 14.9333 64.2774 15.102C64.5381 15.3167 64.6837 15.562 64.7144 15.838C64.7451 16.0987 64.6531 16.3363 64.4384 16.551C63.3344 17.5783 61.9544 18.092 60.2984 18.092ZM72.9849 18C72.2182 18 71.5282 17.8083 70.9149 17.425C70.3016 17.0263 69.8186 16.4897 69.4659 15.815C69.1132 15.1403 68.9369 14.3813 68.9369 13.538V2.567C68.9369 2.22967 69.0442 1.95367 69.2589 1.739C69.4736 1.52433 69.7496 1.417 70.0869 1.417C70.4242 1.417 70.7002 1.52433 70.9149 1.739C71.1296 1.95367 71.2369 2.22967 71.2369 2.567V13.538C71.2369 14.1513 71.4056 14.665 71.7429 15.079C72.0802 15.493 72.4942 15.7 72.9849 15.7H73.7669C74.0429 15.7 74.2729 15.8073 74.4569 16.022C74.6562 16.2367 74.7559 16.5127 74.7559 16.85C74.7559 17.1873 74.6256 17.4633 74.3649 17.678C74.1196 17.8927 73.7976 18 73.3989 18H72.9849ZM67.8789 7.857C67.5569 7.857 67.2962 7.765 67.0969 7.581C66.8976 7.397 66.7979 7.167 66.7979 6.891C66.7979 6.58433 66.8976 6.339 67.0969 6.155C67.2962 5.971 67.5569 5.879 67.8789 5.879H73.1919C73.5139 5.879 73.7746 5.971 73.9739 6.155C74.1732 6.339 74.2729 6.58433 74.2729 6.891C74.2729 7.167 74.1732 7.397 73.9739 7.581C73.7746 7.765 73.5139 7.857 73.1919 7.857H67.8789ZM79.0423 18C78.705 18 78.4213 17.8927 78.1913 17.678C77.9767 17.448 77.8693 17.1643 77.8693 16.827V6.592C77.8693 6.23933 77.9767 5.95567 78.1913 5.741C78.4213 5.52633 78.705 5.419 79.0423 5.419C79.395 5.419 79.6787 5.52633 79.8933 5.741C80.108 5.95567 80.2153 6.23933 80.2153 6.592V16.827C80.2153 17.1643 80.108 17.448 79.8933 17.678C79.6787 17.8927 79.395 18 79.0423 18ZM79.0423 3.372C78.6283 3.372 78.268 3.22633 77.9613 2.935C77.67 2.62833 77.5243 2.268 77.5243 1.854C77.5243 1.44 77.67 1.08733 77.9613 0.795999C78.268 0.489333 78.6283 0.336 79.0423 0.336C79.4563 0.336 79.809 0.489333 80.1003 0.795999C80.407 1.08733 80.5603 1.44 80.5603 1.854C80.5603 2.268 80.407 2.62833 80.1003 2.935C79.809 3.22633 79.4563 3.372 79.0423 3.372ZM89.1568 18C88.3901 18 87.7001 17.8083 87.0868 17.425C86.4734 17.0263 85.9904 16.4897 85.6378 15.815C85.2851 15.1403 85.1088 14.3813 85.1088 13.538V2.567C85.1088 2.22967 85.2161 1.95367 85.4308 1.739C85.6454 1.52433 85.9214 1.417 86.2588 1.417C86.5961 1.417 86.8721 1.52433 87.0868 1.739C87.3014 1.95367 87.4088 2.22967 87.4088 2.567V13.538C87.4088 14.1513 87.5774 14.665 87.9148 15.079C88.2521 15.493 88.6661 15.7 89.1568 15.7H89.9388C90.2148 15.7 90.4448 15.8073 90.6288 16.022C90.8281 16.2367 90.9278 16.5127 90.9278 16.85C90.9278 17.1873 90.7974 17.4633 90.5368 17.678C90.2914 17.8927 89.9694 18 89.5708 18H89.1568ZM84.0508 7.857C83.7288 7.857 83.4681 7.765 83.2688 7.581C83.0694 7.397 82.9698 7.167 82.9698 6.891C82.9698 6.58433 83.0694 6.339 83.2688 6.155C83.4681 5.971 83.7288 5.879 84.0508 5.879H89.3638C89.6858 5.879 89.9464 5.971 90.1458 6.155C90.3451 6.339 90.4448 6.58433 90.4448 6.891C90.4448 7.167 90.3451 7.397 90.1458 7.581C89.9464 7.765 89.6858 7.857 89.3638 7.857H84.0508Z" fill="#1F1F38"/>
</svg>
